<?xml version="1.0" encoding="UTF-8"?>
<svg width="246px" height="259px" viewBox="0 0 246 259" version="1.1" xmlns="http://www.w3.org/2000/svg" xmlns:xlink="http://www.w3.org/1999/xlink">
    <title>p21</title>
    <g id="Page-1" stroke="none" stroke-width="1" fill="none" fill-rule="evenodd">
        <g id="Redesign-v2" transform="translate(-614.000000, -6545.000000)">
            <g id="newsletter-" transform="translate(620.000000, 6545.000000)">
                <g id="p21" transform="translate(117.000000, 129.500000) scale(-1, 1) translate(-117.000000, -129.500000) translate(-6.000000, 0.000000)">
                    <rect id="Rectangle" fill="#172B4D" fill-rule="nonzero" x="174" y="89" width="45" height="45"></rect>
                    <path d="M174,135 L196.657262,135 C209.046671,135.170827 219,145.194214 219,157.5 C219,169.805786 209.046671,179.829173 196.657262,180 L174,180 L174,135 Z" id="Path" fill="#172B4D"></path>
                    <path d="M131.008648,157.679269 C130.976451,151.729694 133.309095,146.011017 137.493408,141.781326 C141.67772,137.551636 147.370931,135.157419 153.320553,135.125395 L153.320553,135.125395 L175.753531,135 L176,179.869928 L153.558374,180 C147.608751,180.032997 141.88957,177.701473 137.659034,173.518003 C133.428498,169.334532 131.033164,163.641819 131,157.692241 L131,157.692241 L131.008648,157.679269 Z" id="Path" fill="#5E72E4"></path>
                    <path d="M152.510837,44 C164.931259,44 175,54.0726305 175,66.497837 L175,66.497837 L175,89 L130,89 L130,66.497837 C130,60.5272838 132.372359,54.8015852 136.594584,50.5818004 C140.81681,46.3620157 146.542586,43.9942563 152.510837,44 L152.510837,44 Z" id="Path" fill="#F5365C"></path>
                    <path d="M62.5043369,0 C74.9290501,0.00239489464 85,10.0752866 85,22.5 L85,45 L40,45 L40,22.5 C40.0023949,10.0728916 50.0772283,0 62.5043369,0 Z" id="Path" fill="#F5365C"></path>
                    <path d="M131.004336,112.512357 C130.913949,106.459078 133.197267,100.617306 137.351966,96.2722186 C141.506664,91.9271314 147.192394,89.4346737 153.158306,89.3431819 L175.65484,89 L175.997405,111.825993 C176.184203,124.433655 166.262621,134.807833 153.836931,134.997367 C141.411241,135.186901 131.186799,125.120019 131,112.512357 L131.004336,112.512357 Z" id="Path" fill="#172B4D"></path>
                    <path d="M85.0021774,45 L129.997823,45 C130.110445,53.1788671 125.847186,60.7855138 118.840043,64.9080773 C111.832899,69.0306409 103.167101,69.0306409 96.1599573,64.9080773 C89.152814,60.7855138 84.8895551,53.1788671 85.0021774,45 L85.0021774,45 Z" id="Path" fill="#11CDEF"></path>
                    <path d="M130,45 L175,45 C175,57.7025492 164.926407,68 152.5,68 C140.073593,68 130,57.7025492 130,45 Z" id="Path" fill="#FB6340"></path>
                    <rect id="Rectangle" fill="#F5365C" fill-rule="nonzero" x="205" y="180" width="40" height="45"></rect>
                    <path d="M62.5021683,67 C74.9273776,67 85,77.0735931 85,89.5 C85,101.926407 74.9273776,112 62.5021683,112 L40,112 L40,89.5 C40.0023947,77.0728916 50.0762572,67 62.5021683,67 Z" id="Path" fill="#5E72E4"></path>
                    <path d="M200.743002,180 L201,224.999495 C186.710897,225.081895 175.07316,215.076707 175.000343,202.651538 C174.927527,190.226369 186.445332,180.078064 200.743002,180 Z" id="Path" fill="#5E72E4"></path>
                    <rect id="Rectangle" fill="#F5365C" fill-rule="nonzero" x="130" y="0" width="45" height="45"></rect>
                    <rect id="Rectangle" fill="#11CDEF" fill-rule="nonzero" x="85" y="0" width="45" height="45"></rect>
                    <rect id="Rectangle" fill="#F5365C" fill-rule="nonzero" x="200" y="46" width="45" height="45"></rect>
                    <path d="M175,44 L197.495336,44 C206.596392,43.9982467 214.802193,49.4794727 218.285827,57.887417 C221.769461,66.2953613 219.84476,75.9739224 213.409341,82.4093412 C206.973922,88.8447601 197.295361,90.7694608 188.887417,87.2858272 C180.479473,83.8021935 174.998247,75.596392 175,66.4953356 L175,44 Z" id="Path" fill="#172B4D"></path>
                    <path d="M220,46 C207.297451,46 197,35.9264069 197,23.5 C197,11.0735931 207.297451,1 220,1 L220,46 Z" id="Path" fill="#5E72E4"></path>
                    <path d="M218,46 L218,1 C230.702549,1 241,11.0697112 241,23.4913295 C241,35.9129478 230.702549,45.982659 218,45.982659 L218,46 Z" id="Path" fill="#5E72E4"></path>
                    <path d="M199,180 L222.5,180 C235.48032,180 246,190.079029 246,202.504337 C246,214.929645 235.48032,225 222.5,225 L199,225 L199,180 Z" id="Path" fill="#5E72E4"></path>
                    <path d="M246,180 C231.089355,180 219,169.926279 219,157.497832 C219,145.069384 231.084961,135 246,135 L246,180 Z" id="Path" fill="#11CDEF"></path>
                    <path d="M222.5,89 L245,89 L245,134 L222.5,134 C214.461525,134 207.033666,129.711525 203.014428,122.75 C198.995191,115.788476 198.995191,107.211524 203.014428,100.25 C207.033666,93.2884755 214.461525,89 222.5,89 L222.5,89 Z" id="Path" fill="#5E72E4"></path>
                    <path d="M40.0043365,44 L85,44 C84.8291728,56.1993554 74.8057862,66 62.5,66 C50.1942138,66 40.1708272,56.1993554 40,44 L40.0043365,44 Z" id="Path" fill="#FE5E33"></path>
                    <path d="M122.008561,128 C121.700411,140.40761 129.74882,150.701074 139.990775,151 C140.311089,138.601055 132.250516,128.303259 122.008561,128 Z" id="Path" fill="#F5365C"></path>
                    <path d="M174.95338,89 C162.613638,89.8017674 153.253877,100.546483 154.046892,113 C166.385497,112.195897 175.743955,101.452678 174.95338,89 L174.95338,89 Z" id="Path" fill="#F5365C"></path>
                    <path d="M170,230.868692 C166.549924,242.687534 154.016286,249.519996 142,246.132333 C145.448036,234.311894 157.983419,227.478481 170,230.868692 L170,230.868692 Z" id="Path" fill="#172B4D"></path>
                    <path d="M174,0 C186.702549,0 197,10.2974508 197,23 C184.297451,23 174,12.7025492 174,0 Z" id="Path" fill="#5E72E4"></path>
                    <path d="M174,45 C186.70586,45 197,34.7038927 197,22 C184.303007,22 174,32.3004535 174,45 Z" id="Path" fill="#5E72E4"></path>
                    <path d="M242,41 C242,53.7008185 231.703266,63.9975524 219,64 L219,64 C219,51.2991815 229.296734,41.0024476 242,41 L242,41 Z" id="Path" fill="#11CDEF"></path>
                    <path d="M82,17 C82,23.1030562 79.5762291,28.9558817 75.2623823,33.269726 C70.9485355,37.5835702 65.0983493,40.0046987 59,40 L59,40 C59,33.8969438 61.4237709,28.0441183 65.7376177,23.730274 C70.0514645,19.4164298 75.9016507,16.9953013 82,17 Z" id="Path" fill="#172B4D"></path>
                    <path d="M105,112 L105,67 C118.798294,67 130,77.0746916 130,89.5 C130,101.925308 118.810838,112 105,112 Z" id="Path" fill="#F5365C"></path>
                    <path d="M127,56.5044365 C122.97818,63.6178336 115.544682,68 107.5,68 C99.4553175,68 92.0218198,63.6178336 88,56.5044365 C92.0182978,49.3862852 99.4530437,45 107.5,45 C115.546956,45 122.981702,49.3862852 127,56.5044365 L127,56.5044365 Z" id="Path" fill="#5E72E4"></path>
                    <path d="M40.4505095,151.835708 C38.8530277,143.996554 41.5684211,135.902151 47.5723845,130.605884 C53.5763479,125.309616 61.9552014,123.617467 69.5482603,126.167752 C71.147504,134.002959 68.4360861,142.094676 62.4367149,147.390822 C56.4373438,152.686968 48.0628975,154.381669 40.4720986,151.835708 L40.4505095,151.835708 Z" id="Path" fill="#11CDEF"></path>
                    <path d="M61.5,78 C67.8512746,78 73,83.1487254 73,89.5 C73,95.8512746 67.8512746,101 61.5,101 C55.1487254,101 50,95.8512746 50,89.5 L50,89.5 C50,83.1487254 55.1487254,78 61.5,78 L61.5,78 Z" id="Path" fill="#F5365C"></path>
                    <path d="M121.478347,210 C124.111222,209.991303 126.489305,211.571745 127.500901,214.002544 C128.512497,216.433343 127.957767,219.234297 126.096032,221.096032 C124.234297,222.957767 121.433343,223.512497 119.002544,222.500901 C116.571745,221.489305 114.991303,219.111222 115,216.478347 L115,216.478347 C115,212.900474 117.900474,210 121.478347,210 L121.478347,210 Z" id="Path" fill="#5E72E4"></path>
                    <path d="M128.5,166 C134.851275,166 140,171.148725 140,177.5 C140,183.851275 134.851275,189 128.5,189 C122.148725,189 117,183.851275 117,177.5 C117,171.148725 122.148725,166 128.5,166 Z" id="Path" fill="#F5365C"></path>
                    <path d="M88.5,112 C94.8512746,112 100,117.148725 100,123.5 C100,129.851275 94.8512746,135 88.5,135 C82.1487254,135 77,129.851275 77,123.5 L77,123.5 C77.014626,117.154794 82.1547935,112.014626 88.5,112 Z" id="Path" fill="#FB6340"></path>
                    <path d="M118.499845,102 C123.152705,102 127.347078,104.803772 129.125989,109.103143 C130.9049,113.402513 129.917769,118.350185 126.625163,121.637715 C123.332556,124.925244 118.383368,125.904739 114.086749,124.119195 C109.790129,122.333651 106.992839,118.134955 107,113.4821 L107,113.4821 C107.009797,107.137844 112.155582,102 118.499845,102 L118.499845,102 Z" id="Path" fill="#172B4D"></path>
                    <path d="M222.495401,190 C227.147052,189.998208 231.341668,192.798916 233.123019,197.095966 C234.904371,201.393016 233.921589,206.340026 230.633009,209.629873 C227.344429,212.919721 222.397798,213.90441 218.100062,212.124715 C213.802325,210.345019 211,206.151483 211,201.499833 C210.998825,198.450295 212.209425,195.525257 214.365358,193.368492 C216.521292,191.211728 219.445863,190 222.495401,190 L222.495401,190 Z" id="Path" fill="#F5365C"></path>
                    <path d="M6,13 C9.31370886,13 12,15.6862927 12,19 C12,22.3137089 9.31370886,25 6,25 C2.68629274,25 0,22.3137089 0,19 C-0.00115723958,17.4083471 0.63061158,15.8815504 1.756081,14.756081 C2.88155043,13.6306116 4.4083471,12.9988428 6,13 L6,13 Z" id="Path" fill="#F5365C"></path>
                    <path d="M174.978326,44 C174.980724,56.4184341 164.924486,66.4901896 152.510837,66.5021578 L152.510837,66.5021578 C152.510837,54.0847132 162.565668,44.0143582 174.978326,44 L174.978326,44 Z M130,88.9999896 C130,83.0294273 132.372359,77.30373 136.594584,73.0839463 C140.81681,68.8641625 146.542586,66.4964036 152.510837,66.5021473 L152.510837,66.5021473 C152.510837,72.4727096 150.138478,78.1984069 145.916253,82.4181907 C141.694028,86.6379744 135.968251,89.0057333 130,88.9999896 Z M152.510837,66.5021578 C140.089714,66.4997631 130.021674,56.4259053 130.021674,44 C142.442797,44.0023947 152.510837,54.0762525 152.510837,66.5021578 Z M152.510837,66.5021578 C164.931259,66.5021578 175,76.5747755 175,88.9999791 L175,88.9999791 C162.579578,88.9999791 152.510837,78.9273614 152.510837,66.5021578 L152.510837,66.5021578 Z" id="Shape" fill="#172B4D"></path>
                    <path d="M182.40979,233 C188.07743,234.128524 193.072177,237.502051 196.294881,242.3782 C199.517586,247.25435 200.704163,253.233546 199.593495,259 C187.79246,256.647809 180.099369,245.00769 182.40979,233 Z" id="Path" fill="#172B4D"></path>
                    <path d="M226.5,101 C232.851275,101 238,106.148725 238,112.5 C238,118.851275 232.851275,124 226.5,124 C220.148725,124 215,118.851275 215,112.5 L215,112.5 C215,106.148725 220.148725,101 226.5,101 Z" id="Path" fill="#FFFFFF"></path>
                    <path d="M34,59 C34,65.627417 28.627417,71 22,71 C22,64.372583 27.372583,59 34,59 Z M10,83 C10,76.372583 15.372583,71 22,71 L22,71 C22,77.627417 16.627417,83 10,83 L10,83 Z M22,71 C15.372583,71 10,65.627417 10,59 C13.1825981,59.0022725 16.2339425,60.2687345 18.4827718,62.5207786 C20.731601,64.7728228 21.9937027,67.8259733 21.9914286,71.0085714 L22,71 Z M22,71 C28.627417,71 34,76.372583 34,83 L34,83 C27.372583,83 22,77.627417 22,71 L22,71 Z" id="Shape" fill="#172B4D"></path>
                    <path d="M115,149 C114.997605,161.429504 104.9218,171.504338 92.493494,171.504338 C92.4958891,159.074834 102.571694,149 115,149 L115,149 Z M70,194 C70,181.571197 80.0745641,171.495662 92.5021687,171.495662 L92.5021687,171.495662 C92.5021687,183.924465 82.4276046,194 70,194 L70,194 Z M92.5021687,171.495662 C80.077951,171.495663 70.0047896,161.425414 70,149 C82.4242168,149.00479 92.4934949,159.078922 92.493494,171.504338 L92.5021687,171.495662 Z M92.5021687,171.495662 C104.927087,171.500451 114.997606,181.573883 115,194 L115,194 C102.57508,194 92.5006774,183.930454 92.493494,171.504338 L92.5021687,171.495662 Z" id="Shape" fill="#11CDEF"></path>
                    <path d="M93,166 C96.3131415,166 98.9991972,168.685406 99,171.998547 C99.0008024,175.311687 96.3160481,177.998393 93.0029078,178 C89.6897674,178.001605 87.0024096,175.317503 87,172.004364 L87,172.004364 C87,168.689949 89.6855861,166.002409 93,166 L93,166 Z" id="Path" fill="#F5365C"></path>
                    <path d="M159.008722,141 C162.32129,141.004815 165.003206,143.693236 165,147.005809 C164.996788,150.318381 162.30967,153.001602 158.997098,153 C155.684526,152.998397 153,150.312577 153,147 L153,147 C152.998845,145.409104 153.630015,143.882969 154.754541,142.757624 C155.879067,141.63228 157.404742,141 158.99564,141 L159.008722,141 Z" id="Path" fill="#172B4D"></path>
                    <path d="M176.999918,219.004359 C179.427449,219.004361 181.615784,220.466607 182.543943,222.708877 C183.472102,224.951147 182.957175,227.531562 181.239404,229.246213 C179.521632,230.960865 176.939534,231.471852 174.697802,230.540769 C172.45607,229.609687 170.996478,227.420022 171,224.993375 L171,224.993375 C171,221.685027 173.681649,219.002406 176.991197,219 L176.991197,219 L176.999918,219.004359 Z" id="Path" fill="#172B4D"></path>
                </g>
            </g>
        </g>
    </g>
</svg>